# xmcd CD database file
#
# Track frame offsets:
#	150
#	10253
#	24636
#	42807
#	65037
#	86436
#	101312
#	122786
#	140982
#	157791
#	179006
#
# Disc length: 2504 seconds
#
# Revision: 0
# Processed by: cddbd v1.5.2PL0 Copyright (c) Steve Scherf et al.
# Submitted via: CDex 1.70beta2
#
DISCID=8f09c60b
DTITLE=The Stephane Wrembel Trio - Barbes Brooklyn
DYEAR=2006
DGENRE=Jazz
TTITLE0=Intoduction
TTITLE1=Barbes - Brooklyn
TTITLE2=Nanoc
TTITLE3=Afro Blue
TTITLE4=Water is Life
TTITLE5=Fleche D'Or
TTITLE6=Big Brother
TTITLE7=Buster Swing
TTITLE8=Boston
TTITLE9=A Night in Tunisia
TTITLE10=Detroduction
EXTD=YEAR: 2006
EXTT0=
EXTT1=
EXTT2=
EXTT3=
EXTT4=
EXTT5=
EXTT6=
EXTT7=
EXTT8=
EXTT9=
EXTT10=
PLAYORDER=
